<?xml version="1.0" encoding="UTF-8"?>
<svg id="OUTLINE" fill="black" xmlns="http://www.w3.org/2000/svg" viewBox="0 0 512 512">
  <path d="M472,16H40c-13.2334,0-24,10.7666-24,24V376c0,13.2334,10.7666,24,24,24H189.75366l-20,80h-33.75366v16h240v-16h-33.75366l-20-80h149.75366c13.2334,0,24-10.7666,24-24V40c0-13.2334-10.7666-24-24-24ZM40,32H472c4.41113,0,8,3.58887,8,8v8H80v16H480V336H32V40c0-4.41113,3.58887-8,8-8ZM325.75366,480H186.24634l20-80h99.50732l20,80Zm146.24634-96H40c-4.41113,0-8-3.58887-8-8v-24H480v24c0,4.41113-3.58887,8-8,8Z"/>
  <rect x="48" y="48" width="16" height="16"/>
  <rect x="120" y="80" width="16" height="240"/>
  <path d="M178.34326,141.65674l11.31348-11.31348-18.34326-18.34326,18.34326-18.34326-11.31348-11.31348-24,24c-3.12451,3.12402-3.12451,8.18945,0,11.31348l24,24Z"/>
  <rect x="194.45934" y="108.00005" width="43.08132" height="15.9999" transform="translate(28.07453 273.46752) rotate(-68.19794)"/>
  <path d="M253.65674,141.65674l24-24c3.12451-3.12402,3.12451-8.18945,0-11.31348l-24-24-11.31348,11.31348,18.34326,18.34326-18.34326,18.34326,11.31348,11.31348Z"/>
  <rect x="296" y="104" width="168" height="16"/>
  <path d="M314.34326,258.34326l-24,24c-3.12451,3.12402-3.12451,8.18945,0,11.31348l24,24,11.31348-11.31348-18.34326-18.34326,18.34326-18.34326-11.31348-11.31348Z"/>
  <rect x="330.45934" y="284.00005" width="43.08132" height="15.9999" transform="translate(-49.84719 510.37316) rotate(-68.19794)"/>
  <path d="M389.65674,258.34326l-11.31348,11.31348,18.34326,18.34326-18.34326,18.34326,11.31348,11.31348,24-24c3.12451-3.12402,3.12451-8.18945,0-11.31348l-24-24Z"/>
  <rect x="184" y="264" width="88" height="16"/>
  <rect x="288" y="136" width="136" height="16"/>
  <rect x="152" y="168" width="200" height="16"/>
  <rect x="168" y="200" width="272" height="16"/>
  <rect x="152" y="232" width="112" height="16"/>
  <rect x="168" y="296" width="88" height="16"/>
  <rect x="48" y="88" width="40" height="16"/>
  <rect x="48" y="128" width="40" height="16"/>
  <rect x="48" y="168" width="40" height="16"/>
  <rect x="64" y="208" width="40" height="16"/>
  <rect x="64" y="248" width="40" height="16"/>
  <rect x="64" y="288" width="40" height="16"/>
</svg>